<svg width="100%" viewBox="0 0 320 280" xmlns="http://www.w3.org/2000/svg" role="img">
  <title>Cemetery Memorial QR Plaque</title>
  <desc>Brass or metal memorial plaque with QR code, engraved name and dates</desc>
  
  <!-- Metal plaque background (brass/gold) -->
  <rect x="30" y="30" width="260" height="220" fill="#C8A862" rx="2"/>
  
  <!-- Slight emboss/depth effect -->
  <rect x="32" y="32" width="256" height="216" fill="#D4B896" opacity="0.3" rx="1"/>
  
  <!-- Border frame -->
  <rect x="30" y="30" width="260" height="220" fill="none" stroke="#8B7355" stroke-width="2" rx="2"/>
  
  <!-- QR Code area (placeholder square pattern) -->
  <rect x="50" y="50" width="80" height="80" fill="#FFFFFF"/>
  <rect x="55" y="55" width="8" height="8" fill="#1C1C1C"/>
  <rect x="70" y="55" width="8" height="8" fill="#1C1C1C"/>
  <rect x="115" y="55" width="8" height="8" fill="#1C1C1C"/>
  <rect x="55" y="115" width="8" height="8" fill="#1C1C1C"/>
  <rect x="115" y="115" width="8" height="8" fill="#1C1C1C"/>
  <circle cx="90" cy="80" r="3" fill="#2A2A2A" opacity="0.5"/>
  <circle cx="110" cy="100" r="2" fill="#C8420A" opacity="0.4"/>
  
  <!-- QR label -->
  <text x="90" y="145" text-anchor="middle" font-size="10" fill="#1C1C1C" font-family="Outfit, sans-serif" font-weight="500">
    Scan for story
  </text>
  
  <!-- Name plate -->
  <text x="160" y="90" text-anchor="start" font-size="16" fill="#1C1C1C" font-family="Oswald, sans-serif" font-weight="600">
    In Loving Memory
  </text>
  
  <!-- Name (placeholder) -->
  <text x="160" y="115" text-anchor="start" font-size="14" fill="#2A2A2A" font-family="Cormorant Garamond, serif" font-weight="600">
    [Name Engraved Here]
  </text>
  
  <!-- Dates -->
  <text x="160" y="140" text-anchor="start" font-size="11" fill="#1C1C1C" font-family="Outfit, sans-serif">
    [Birth — Death]
  </text>
  
  <!-- Legacy tagline -->
  <text x="160" y="160" text-anchor="start" font-size="10" fill="#8B7355" font-family="Cormorant Garamond, serif" font-style="italic">
    Your story never dies
  </text>
  
  <!-- Gold metalflake sparkles -->
  <circle cx="220" cy="70" r="0.8" fill="#E8C97A" opacity="0.6"/>
  <circle cx="240" cy="120" r="0.6" fill="#E8C97A" opacity="0.5"/>
  <circle cx="250" cy="90" r="0.7" fill="#E8C97A" opacity="0.4"/>
</svg>
