<svg width="100%" viewBox="0 0 300 320" xmlns="http://www.w3.org/2000/svg" role="img">
  <title>Contractor Legacy Bundle</title>
  <desc>Package showing QR business card, digital profile, and plaque mockup</desc>
  
  <!-- Package box (3D perspective) -->
  <rect x="40" y="60" width="220" height="200" fill="#FAF3E6" stroke="#D4AF37" stroke-width="2.5" rx="3"/>
  
  <!-- Top flap -->
  <polygon points="40,60 150,20 370,20 220,60" fill="#F2A06A" opacity="0.8" stroke="#D4AF37" stroke-width="1.5"/>
  
  <!-- Package contents label -->
  <text x="150" y="50" text-anchor="middle" font-size="13" fill="#1C1C1C" font-family="Oswald, sans-serif" font-weight="600">
    BUNDLE CONTENTS
  </text>
  
  <!-- Item 1: QR Business Card -->
  <rect x="55" y="85" width="70" height="40" fill="#FAF3E6" stroke="#2A2A2A" stroke-width="1.5" rx="2"/>
  <rect x="58" y="88" width="20" height="20" fill="#FFFFFF" stroke="#D4AF37" stroke-width="0.5"/>
  <!-- Mini QR -->
  <rect x="60" y="90" width="3" height="3" fill="#1C1C1C"/>
  <rect x="66" y="90" width="3" height="3" fill="#1C1C1C"/>
  <text x="90" y="105" font-size="7" fill="#2A2A2A" font-family="Oswald, sans-serif" font-weight="600">
    QR CARD
  </text>
  
  <!-- Item 2: Digital Profile -->
  <rect x="155" y="85" width="70" height="40" fill="#2A2A2A" stroke="#D4AF37" stroke-width="1.5" rx="2"/>
  <text x="160" y="100" font-size="9" fill="#FAF3E6" font-family="Oswald, sans-serif" font-weight="600">
    DIGITAL
  </text>
  <text x="165" y="112" font-size="7" fill="#D4AF37" font-family="Outfit, sans-serif">
    Profile
  </text>
  <circle cx="205" cy="100" r="2" fill="#D4AF37" opacity="0.6"/>
  <circle cx="215" cy="110" r="1.5" fill="#D4AF37" opacity="0.5"/>
  
  <!-- Item 3: QR Plaque -->
  <rect x="255" y="85" width="35" height="40" fill="#C8A862" stroke="#8B7355" stroke-width="1" rx="1"/>
  <rect x="263" y="92" width="12" height="12" fill="#FFFFFF" stroke="#1C1C1C" stroke-width="0.5"/>
  <!-- Mini QR -->
  <rect x="265" y="94" width="2" height="2" fill="#1C1C1C"/>
  <rect x="270" y="94" width="2" height="2" fill="#1C1C1C"/>
  <text x="272" y="110" text-anchor="middle" font-size="6" fill="#1C1C1C" font-family="Outfit, sans-serif">
    QR
  </text>
  
  <!-- Bottom section: Features -->
  <text x="150" y="145" text-anchor="middle" font-size="11" fill="#1C1C1C" font-family="Oswald, sans-serif" font-weight="600">
    WHAT'S INCLUDED:
  </text>
  
  <!-- Feature bullets (simplified) -->
  <circle cx="65" cy="165" r="2.5" fill="#D4AF37"/>
  <text x="75" y="169" font-size="9" fill="#1C1C1C" font-family="Outfit, sans-serif">
    Custom QR business card
  </text>
  
  <circle cx="65" cy="185" r="2.5" fill="#D4AF37"/>
  <text x="75" y="189" font-size="9" fill="#1C1C1C" font-family="Outfit, sans-serif">
    Forever digital profile page
  </text>
  
  <circle cx="65" cy="205" r="2.5" fill="#D4AF37"/>
  <text x="75" y="209" font-size="9" fill="#1C1C1C" font-family="Outfit, sans-serif">
    Legacy plaque with QR
  </text>
  
  <circle cx="65" cy="225" r="2.5" fill="#D4AF37"/>
  <text x="75" y="229" font-size="9" fill="#1C1C1C" font-family="Outfit, sans-serif">
    Search engine optimization
  </text>
  
  <!-- Price box -->
  <rect x="50" y="250" width="200" height="45" fill="#2A2A2A" rx="3"/>
  <text x="150" y="268" text-anchor="middle" font-size="18" fill="#D4AF37" font-family="Oswald, sans-serif" font-weight="700">
    $129
  </text>
  <text x="150" y="285" text-anchor="middle" font-size="9" fill="#FAF3E6" font-family="Outfit, sans-serif">
    One-time investment, forever legacy
  </text>
</svg>
