<svg width="100%" viewBox="0 0 340 240" xmlns="http://www.w3.org/2000/svg" role="img">
  <title>Pet QR Legacy Tags</title>
  <desc>Two QR pet tags showing Basic (silver) and Premium (gold) with chain attachments</desc>
  
  <!-- BASIC TAG (Left) -->
  <!-- Chain loop -->
  <circle cx="70" cy="15" r="5" fill="none" stroke="#A8A8A8" stroke-width="2"/>
  
  <!-- Tag shape (bone/rounded rectangle) -->
  <rect x="35" y="30" width="70" height="90" rx="6" fill="#D3D3D3" stroke="#999999" stroke-width="1.5"/>
  
  <!-- Hole at top -->
  <circle cx="70" cy="35" r="3" fill="#FFFFFF"/>
  
  <!-- QR code area (simplified pattern) -->
  <rect x="42" y="42" width="56" height="56" fill="#FFFFFF"/>
  <rect x="46" y="46" width="6" height="6" fill="#1C1C1C"/>
  <rect x="58" y="46" width="6" height="6" fill="#1C1C1C"/>
  <rect x="88" y="46" width="6" height="6" fill="#1C1C1C"/>
  <rect x="46" y="86" width="6" height="6" fill="#1C1C1C"/>
  <rect x="88" y="86" width="6" height="6" fill="#1C1C1C"/>
  
  <!-- Text -->
  <text x="70" y="108" text-anchor="middle" font-size="9" fill="#1C1C1C" font-family="Outfit, sans-serif" font-weight="500">
    Scan story
  </text>
  
  <!-- Basic label -->
  <text x="70" y="128" text-anchor="middle" font-size="10" fill="#666666" font-family="Oswald, sans-serif" font-weight="600">
    BASIC
  </text>
  
  <!-- Price tag -->
  <text x="70" y="145" text-anchor="middle" font-size="9" fill="#999999" font-family="Outfit, sans-serif">
    $24.99
  </text>
  
  
  <!-- PREMIUM TAG (Right) -->
  <!-- Chain loop -->
  <circle cx="270" cy="15" r="5" fill="none" stroke="#E8C97A" stroke-width="2.5"/>
  
  <!-- Tag shape -->
  <rect x="235" y="30" width="70" height="90" rx="6" fill="#E8C97A" stroke="#D4AF37" stroke-width="2"/>
  
  <!-- Hole at top -->
  <circle cx="270" cy="35" r="3" fill="#FFFFFF"/>
  
  <!-- QR code area -->
  <rect x="242" y="42" width="56" height="56" fill="#FFFFFF"/>
  <rect x="246" y="46" width="6" height="6" fill="#1C1C1C"/>
  <rect x="258" y="46" width="6" height="6" fill="#1C1C1C"/>
  <rect x="288" y="46" width="6" height="6" fill="#1C1C1C"/>
  <rect x="246" y="86" width="6" height="6" fill="#1C1C1C"/>
  <rect x="288" y="86" width="6" height="6" fill="#1C1C1C"/>
  
  <!-- Metalflake sparkles on premium -->
  <circle cx="315" cy="50" r="1" fill="#FFFFFF" opacity="0.7"/>
  <circle cx="250" cy="35" r="0.8" fill="#FFFFFF" opacity="0.5"/>
  <circle cx="285" cy="25" r="0.9" fill="#FFFFFF" opacity="0.6"/>
  
  <!-- Text -->
  <text x="270" y="108" text-anchor="middle" font-size="9" fill="#1C1C1C" font-family="Outfit, sans-serif" font-weight="500">
    Scan story
  </text>
  
  <!-- Premium label -->
  <text x="270" y="128" text-anchor="middle" font-size="10" fill="#2A2A2A" font-family="Oswald, sans-serif" font-weight="600">
    PREMIUM
  </text>
  
  <!-- Price tag -->
  <text x="270" y="145" text-anchor="middle" font-size="9" fill="#2A2A2A" font-family="Outfit, sans-serif" font-weight="500">
    $49.99
  </text>
  
  <!-- Comparison label -->
  <text x="170" y="180" text-anchor="middle" font-size="11" fill="#1C1C1C" font-family="Outfit, sans-serif">
    Plus: GPS, Behavioral journey, Memorial conversion
  </text>
</svg>
